<svg width="226" height="63" fill="none" xmlns="http://www.w3.org/2000/svg"><g clip-path="url(#clip0_1046_1118)"><path opacity=".8" d="M73.39 29.11h.516c1.219 0 1.578-.657 1.906-1.407L78.578 21h-1.031l-2.016 4.969L73.328 21h-1.047l2.766 6.125-.125.297c-.172.39-.453.781-1.031.781h-.5v.906zM83.55 23h-.922v3.043a5.058 5.058 0 01-1.453.207c-.75 0-1.328-.422-1.328-1.344v-1.922h-.922v1.922c0 1.469.89 2.203 2.25 2.203a4.92 4.92 0 001.453-.203V29h.922v-6zm4.207 6.125c1.219 0 2.11-.61 2.39-1.516l-.89-.25c-.235.625-.778.938-1.5.938-1.082 0-1.828-.7-1.871-1.985h4.355v-.39c0-2.235-1.328-3-2.578-3-1.625 0-2.703 1.281-2.703 3.125s1.062 3.078 2.797 3.078zm-1.871-3.61c.062-.933.722-1.765 1.777-1.765 1 0 1.64.75 1.64 1.766h-3.417zm10.21-4.765c-.292.246-.73.246-1.343.242-.2 0-.418 0-.656.008-1.829.047-2.735 1.438-2.735 4.11v.64c0 2.219 1.078 3.375 2.688 3.375 1.605 0 2.672-1.164 2.672-3.047 0-1.89-1.082-2.89-2.485-2.89-.824 0-1.594.343-2 1.093h-.078c.125-1.547.703-2.375 1.953-2.422 1.11-.047 1.906-.015 2.453-.547l-.468-.562zm-2.046 7.547c-1.094 0-1.766-.875-1.766-2.219.02-1.312.68-2.062 1.75-2.062 1.098 0 1.766.75 1.766 2.062 0 1.352-.664 2.219-1.75 2.219zM99.053 23h-.922v6h.922v-2.563h2.875V29h.922v-6h-.922v2.578h-2.875V23zm6.402 2.172V23h-.922v6h2.516c1.406 0 2.172-.86 2.172-1.938 0-1.093-.766-1.89-2.172-1.89h-1.594zM110.174 29h.922v-6h-.922v6zm-4.719-2.969h1.594c.73 0 1.25.446 1.25 1.078 0 .606-.52 1.032-1.25 1.032h-1.594v-2.11zm8.25 1.61V23h-.922v6h1.078l2.875-4.64V29h.922v-6h-1.062l-2.891 4.64zM115.986 21c0 .406-.218.766-.765.766s-.75-.36-.75-.766h-.86c0 .844.625 1.438 1.61 1.438 1 0 1.625-.594 1.625-1.438h-.86zm11.173 2h-.922v5.14h-2.875V23h-.922v6h4.641v1.938h.922V28.14h-.844V23zm4.715 6.125c1.219 0 2.109-.61 2.391-1.516l-.891-.25c-.234.625-.777.938-1.5.938-1.082 0-1.828-.7-1.871-1.985h4.355v-.39c0-2.235-1.328-3-2.578-3-1.625 0-2.703 1.281-2.703 3.125s1.063 3.078 2.797 3.078zm-1.871-3.61c.062-.933.723-1.765 1.777-1.765 1 0 1.641.75 1.641 1.766h-3.418zm6.68-2.515h-.922v6h.922v-2.563h2.875V29h.921v-6h-.921v2.578h-2.875V23zm4.664.86h1.984V29h.922v-5.14h1.969V23h-4.875v.86zm6.219 7.39h.922v-3.172h.078c.204.328.594 1.047 1.75 1.047 1.5 0 2.547-1.203 2.547-3.11 0-1.89-1.047-3.093-2.562-3.093-1.172 0-1.531.719-1.735 1.031h-.109V23h-.891v8.25zm.907-5.25c0-1.344.593-2.25 1.718-2.25 1.172 0 1.75.984 1.75 2.25 0 1.281-.593 2.297-1.75 2.297-1.109 0-1.718-.938-1.718-2.297zM74.828 36.781c.938.008 1.496.867 1.617 1.766H74.22v.86h2.234c-.098.913-.676 1.835-1.625 1.843-.703-.008-1.36-.617-1.36-1.297h-.906c0 1.195.954 2.156 2.266 2.156 1.64 0 2.563-1.394 2.563-2.984v-.219c0-1.59-.922-2.984-2.563-2.984-1.172 0-2.266.96-2.266 2h.907c0-.621.734-1.133 1.359-1.14zm6.404 5.344c1.328 0 2.203-.813 2.36-1.875h-.922c-.172.656-.719 1.047-1.438 1.047-1.093 0-1.797-.906-1.797-2.297 0-1.36.72-2.25 1.797-2.25.813 0 1.297.5 1.438 1.047h.922c-.157-1.125-1.11-1.875-2.375-1.875-1.625 0-2.703 1.281-2.703 3.11 0 1.796 1.03 3.093 2.718 3.093zm3.235-5.266h1.984V42h.922v-5.14h1.969V36h-4.875v.86zm8.424 5.266c1.218 0 2.109-.61 2.39-1.516l-.89-.25c-.235.625-.778.938-1.5.938-1.083 0-1.829-.7-1.872-1.984h4.356v-.391c0-2.234-1.328-3-2.578-3-1.625 0-2.703 1.281-2.703 3.125s1.062 3.078 2.797 3.078zm-1.872-3.61c.063-.933.723-1.765 1.778-1.765 1 0 1.64.75 1.64 1.766H91.02zm5.2-1.656h1.984V42h.922v-5.14h1.969V36h-4.875v.86zm7.141 3.782V36h-.922v6h1.079l2.875-4.64V42h.921v-6h-1.062l-2.891 4.64zM113.627 36h-.922v3.043a5.053 5.053 0 01-1.453.207c-.75 0-1.328-.422-1.328-1.344v-1.922h-.922v1.922c0 1.469.891 2.203 2.25 2.203.566 0 1.019-.074 1.453-.203V42h.922v-6zm4.207 6.125c1.219 0 2.109-.61 2.391-1.516l-.891-.25c-.234.625-.777.938-1.5.938-1.082 0-1.828-.7-1.871-1.984h4.355v-.391c0-2.234-1.328-3-2.578-3-1.625 0-2.703 1.281-2.703 3.125s1.063 3.078 2.797 3.078zm-1.871-3.61c.062-.933.723-1.765 1.777-1.765 1 0 1.641.75 1.641 1.766h-3.418zm8.195 3.61c1.328 0 2.203-.813 2.36-1.875h-.922c-.172.656-.719 1.047-1.438 1.047-1.094 0-1.797-.906-1.797-2.297 0-1.36.719-2.25 1.797-2.25.813 0 1.297.5 1.438 1.047h.922c-.157-1.125-1.11-1.875-2.375-1.875-1.625 0-2.704 1.281-2.704 3.11 0 1.796 1.032 3.093 2.719 3.093zm3.707-.125h.922v-2.531h.828L131.584 42h1.187l-2.453-3.11L132.74 36h-1.187l-2.157 2.61h-.609V36h-.922v6zm8.099.125c1.625 0 2.719-1.234 2.719-3.094 0-1.875-1.094-3.11-2.719-3.11-1.625 0-2.719 1.235-2.719 3.11 0 1.86 1.094 3.094 2.719 3.094zm0-.828c-1.235 0-1.797-1.063-1.797-2.266s.562-2.281 1.797-2.281c1.234 0 1.797 1.078 1.797 2.281s-.563 2.266-1.797 2.266zm5.048-.656V36h-.922v6h1.078l2.875-4.64V42h.922v-6h-1.063l-2.89 4.64zM143.293 34c0 .406-.219.766-.766.766s-.75-.36-.75-.766h-.859c0 .844.625 1.438 1.609 1.438 1 0 1.625-.594 1.625-1.438h-.859zm6.454 8h.922v-2.531h.828L153.466 42h1.187l-2.453-3.11 2.422-2.89h-1.187l-2.157 2.61h-.609V36h-.922v6zm8.099.125c1.625 0 2.718-1.234 2.718-3.094 0-1.875-1.093-3.11-2.718-3.11s-2.719 1.235-2.719 3.11c0 1.86 1.094 3.094 2.719 3.094zm0-.828c-1.235 0-1.797-1.063-1.797-2.266s.562-2.281 1.797-2.281c1.234 0 1.797 1.078 1.797 2.281s-.563 2.266-1.797 2.266zm6.563.828c1.328 0 2.203-.813 2.36-1.875h-.922c-.172.656-.719 1.047-1.438 1.047-1.094 0-1.797-.906-1.797-2.297 0-1.36.719-2.25 1.797-2.25.813 0 1.297.5 1.438 1.047h.922c-.157-1.125-1.11-1.875-2.375-1.875-1.625 0-2.704 1.281-2.704 3.11 0 1.796 1.032 3.093 2.719 3.093zm6.988-1.375L169.335 36h-1.219v6h.922v-4.676L171.022 42h.75l1.985-4.59V42h.922v-6h-1.188l-2.094 4.75zm7.485 1.375c1.219 0 2.109-.61 2.39-1.516l-.89-.25c-.235.625-.778.938-1.5.938-1.082 0-1.828-.7-1.871-1.984h4.355v-.391c0-2.234-1.328-3-2.578-3-1.625 0-2.703 1.281-2.703 3.125s1.062 3.078 2.797 3.078zm-1.871-3.61c.062-.933.722-1.765 1.777-1.765 1 0 1.641.75 1.641 1.766h-3.418zm5.199-1.656h1.984V42h.922v-5.14h1.969V36h-4.875v.86zm8.346 5.266c1.625 0 2.718-1.234 2.718-3.094 0-1.875-1.093-3.11-2.718-3.11s-2.719 1.235-2.719 3.11c0 1.86 1.094 3.094 2.719 3.094zm0-.828c-1.235 0-1.797-1.063-1.797-2.266s.562-2.281 1.797-2.281c1.234 0 1.797 1.078 1.797 2.281s-.563 2.266-1.797 2.266zm3.594.703h.313c1.328 0 1.711-1.031 1.797-3l.094-2.14h2.203V42h.922v-6h-4l-.11 2.656c-.078 2.016-.281 2.485-1 2.485h-.219V42zm9.457.125c1.625 0 2.719-1.234 2.719-3.094 0-1.875-1.094-3.11-2.719-3.11-1.625 0-2.718 1.235-2.718 3.11 0 1.86 1.093 3.094 2.718 3.094zm0-.828c-1.234 0-1.796-1.063-1.796-2.266s.562-2.281 1.796-2.281c1.235 0 1.797 1.078 1.797 2.281s-.562 2.266-1.797 2.266zm7.83-5.297h-3.704v6h.922v-5.14h2.782V36zm2.267 4.64V36h-.922v6h1.078l2.875-4.64V42h.922v-6h-1.062l-2.891 4.64zm6.564 0V36h-.922v6h1.078l2.875-4.64V42h.922v-6h-1.063l-2.89 4.64z" fill="#1C1E23"/><path d="M61.207 31.427a32.033 32.033 0 00-5.158-17.46C52.686 8.8 47.907 4.771 42.315 2.392A29.858 29.858 0 0024.633.604c-5.937 1.213-11.39 4.206-15.67 8.6C4.683 13.6 1.77 19.2.588 25.297A32.214 32.214 0 002.33 43.454C4.646 49.197 8.568 54.105 13.6 57.56a30.036 30.036 0 0017.002 5.296c4.02 0 7.999-.812 11.712-2.391a30.56 30.56 0 009.929-6.813 31.491 31.491 0 006.634-10.196 32.163 32.163 0 002.329-12.027z" fill="#B7ECB1"/><path d="M13.033 24.762h1.663L9.762 36.797h-.378L4.355 24.762h1.68l3.51 8.416 3.488-8.416zM19.566 32v3.365c0 .27.09.404.268.404.319-.06.616-.206.861-.422v.954c-.262.181-.54.337-.83.465-.21.083-.432.126-.656.125-.652 0-1.036-.263-1.153-.789a3.263 3.263 0 01-2.065.771 1.78 1.78 0 01-.723-.131 1.82 1.82 0 01-.614-.413 1.84 1.84 0 01-.406-.627 1.88 1.88 0 01-.127-.74 1.955 1.955 0 01.52-1.335 3.528 3.528 0 011.49-.918l1.946-.688v-.419c0-.948-.462-1.426-1.386-1.426-.832 0-1.639.441-2.421 1.322v-1.729c.595-.711 1.444-1.068 2.547-1.07a2.902 2.902 0 011.99.673c.368.335.617.787.706 1.285.045.448.063.898.053 1.349V32zm-1.49 3.19v-2.343l-1.018.404a3.416 3.416 0 00-1.1.64c-.2.215-.311.501-.311.8 0 .297.111.584.312.8a1.072 1.072 0 00.789.305 1.86 1.86 0 00.732-.167 1.9 1.9 0 00.611-.445m5.504-10.422h-1.52v11.986h1.52V24.762zm11.685 0h1.565v11.983h-1.68V27.42l-3.59 4.632h-.307l-3.631-4.632v9.325h-1.672V24.762h1.582l3.879 4.922 3.855-4.922zM43.98 32v3.365c0 .27.086.404.265.404.318-.06.615-.206.86-.422v.954c-.262.181-.54.337-.83.465a1.76 1.76 0 01-.656.126c-.651 0-1.035-.263-1.153-.79a3.26 3.26 0 01-2.064.771 1.77 1.77 0 01-.722-.13 1.81 1.81 0 01-.613-.414 1.839 1.839 0 01-.407-.626 1.88 1.88 0 01-.129-.742c0-.497.186-.975.521-1.334a3.528 3.528 0 011.49-.917l1.948-.689v-.419c0-.948-.465-1.425-1.388-1.425-.832 0-1.64.44-2.422 1.321V29.77c.596-.712 1.445-1.069 2.547-1.071.723-.037 1.433.2 1.996.667.182.162.336.356.453.572.127.22.213.461.253.713.047.448.066.898.057 1.349h-.006zm-1.484 3.185V32.84l-1.022.404a3.42 3.42 0 00-1.096.64 1.172 1.172 0 00-.322.796c-.003.298.106.586.304.803a1.077 1.077 0 00.79.306 1.87 1.87 0 00.733-.167c.23-.105.44-.256.613-.444m5.582-6.326v1.81l.083-.137c.737-1.223 1.473-1.835 2.207-1.835.572 0 1.168.296 1.788.89l-.801 1.373c-.53-.513-1.021-.77-1.472-.77a1.543 1.543 0 00-.723.199 1.59 1.59 0 00-.552.52 2.781 2.781 0 00-.54 1.707v4.136h-1.527v-7.893h1.537zm5.935-3.319a.874.874 0 01.644.266.882.882 0 01.265.651.949.949 0 01-.267.644.9.9 0 01-.627.274.82.82 0 01-.62-.278.9.9 0 01-.268-.649.91.91 0 01.268-.64.84.84 0 01.62-.278l-.015.01zm-.754 3.319h1.523v7.893h-1.523v-7.893z" fill="#91BD9D"/><path d="M13.361 24.456h1.662L10.09 36.49h-.378L4.68 24.456h1.683l3.51 8.415 3.488-8.415zm6.533 7.238v3.365c0 .27.09.404.268.404.318-.061.615-.207.86-.422v.954a5.06 5.06 0 01-.83.465c-.21.083-.434.126-.659.126-.65 0-1.033-.264-1.152-.79a3.249 3.249 0 01-2.062.771 1.779 1.779 0 01-.723-.13 1.815 1.815 0 01-.615-.414 1.838 1.838 0 01-.406-.627 1.879 1.879 0 01-.127-.74c0-.498.186-.976.521-1.335a3.528 3.528 0 011.49-.917l1.945-.689v-.419c0-.948-.462-1.425-1.385-1.425-.83 0-1.638.44-2.425 1.321v-1.728c.596-.712 1.446-1.07 2.55-1.071a2.902 2.902 0 011.99.673c.181.162.334.356.45.572.128.22.215.46.256.713.046.448.064.899.054 1.349v-.006zm-1.49 3.19v-2.343l-1.018.404a3.416 3.416 0 00-1.1.64 1.17 1.17 0 00-.314.8c0 .298.113.584.314.8a1.072 1.072 0 00.79.305c.252-.005.5-.062.731-.167.23-.105.439-.256.612-.444m5.5-10.423h-1.52v11.986h1.52V24.456zm11.689 0h1.561v11.983h-1.677v-9.325l-3.59 4.632h-.31l-3.628-4.632v9.325h-1.671V24.456h1.582l3.878 4.922 3.855-4.922zm8.696 7.238v3.365c0 .27.09.404.268.404.318-.06.615-.206.861-.422v.954a5.06 5.06 0 01-.831.465c-.21.083-.431.126-.655.126-.652 0-1.036-.264-1.153-.79a3.263 3.263 0 01-2.065.771 1.78 1.78 0 01-.723-.13 1.819 1.819 0 01-.614-.414 1.84 1.84 0 01-.407-.627 1.879 1.879 0 01-.127-.74c0-.498.186-.976.522-1.335a3.528 3.528 0 011.49-.917l1.945-.689v-.419c0-.948-.462-1.425-1.386-1.425-.83 0-1.637.44-2.422 1.321v-1.728c.596-.712 1.445-1.069 2.547-1.071a2.902 2.902 0 011.996.667c.366.337.614.789.706 1.285.046.448.064.899.054 1.349h-.006zm-1.484 3.185v-2.344l-1.018.404a3.418 3.418 0 00-1.1.64 1.17 1.17 0 00-.321.796 1.17 1.17 0 00.306.803 1.073 1.073 0 00.79.306c.252-.005.5-.062.731-.167.231-.105.439-.256.612-.444m5.586-6.327v1.811l.084-.138c.734-1.223 1.47-1.835 2.207-1.835.572 0 1.168.296 1.787.89l-.8 1.374c-.528-.514-1.02-.771-1.47-.771a1.543 1.543 0 00-.723.2 1.593 1.593 0 00-.551.519 2.763 2.763 0 00-.54 1.707v4.136h-1.528v-7.893h1.534zm5.931-3.319a.873.873 0 01.644.266.874.874 0 01.268.651.91.91 0 01-.268.652.894.894 0 01-.644.275.82.82 0 01-.616-.278.901.901 0 01-.268-.649.91.91 0 01.268-.639.842.842 0 01.616-.278zm-.75 3.319h1.528v7.893h-1.52l-.008-7.893z" fill="#fff"/></g><defs><clipPath id="clip0_1046_1118"><path fill="#fff" d="M0 0h226v63H0z"/></clipPath></defs></svg>