<svg width="98" height="98" fill="none" xmlns="http://www.w3.org/2000/svg"><path d="M98 49a49 49 0 10-98 0 49 49 0 0098 0z" fill="#B7ECB1"/><path d="M20.868 38.607h2.662l-7.9 18.764h-.605L6.974 38.607h2.69l5.619 13.122 5.585-13.122zm10.46 11.285v5.247c0 .42.143.63.429.63.51-.095.985-.322 1.378-.659v1.488c-.42.283-.865.525-1.33.725-.335.13-.691.196-1.05.196-1.043 0-1.658-.41-1.846-1.23a5.309 5.309 0 01-3.305 1.201 2.92 2.92 0 01-2.792-1.825 2.863 2.863 0 01-.204-1.156 2.996 2.996 0 01.835-2.08A5.677 5.677 0 0125.828 51l3.115-1.074v-.653c0-1.479-.74-2.223-2.218-2.223-1.333 0-2.625.687-3.878 2.06v-2.694c.954-1.11 2.313-1.666 4.078-1.67a4.727 4.727 0 013.186 1.05 3.52 3.52 0 011.13 2.003c.074.699.102 1.401.087 2.104v-.01zm-2.385 4.975v-3.654l-1.632.63c-.643.22-1.24.559-1.76.997a1.808 1.808 0 000 2.494 1.72 1.72 0 001.264.477 3.042 3.042 0 002.151-.954m8.811-16.25h-2.432v18.688h2.432V38.607zm18.712 0h2.504V57.29h-2.69V42.752l-5.748 7.221h-.491l-5.814-7.221V57.29h-2.676V38.607h2.532l6.21 7.675 6.173-7.675zm13.929 11.286v5.246c0 .42.138.63.424.63a2.94 2.94 0 001.379-.658v1.488c-.42.282-.866.525-1.331.725-.335.13-.69.196-1.05.196-1.043 0-1.658-.41-1.845-1.231a5.308 5.308 0 01-3.306 1.202 2.899 2.899 0 01-2.137-.85 2.862 2.862 0 01-.858-2.131 2.995 2.995 0 01.834-2.08A5.677 5.677 0 0164.913 51l3.12-1.074v-.653c0-1.48-.744-2.223-2.223-2.223-1.332 0-2.625.687-3.878 2.06v-2.694c.954-1.11 2.314-1.667 4.078-1.67a4.718 4.718 0 013.196 1.04 3.3 3.3 0 01.725.892c.204.342.341.719.406 1.111.075.699.105 1.401.09 2.104h-.01zm-2.376 4.965v-3.654l-1.636.63a5.522 5.522 0 00-1.755.997 1.803 1.803 0 00-.029 2.494 1.73 1.73 0 001.264.477 3.062 3.062 0 002.156-.953m8.938-9.864v2.823l.133-.214c1.18-1.908 2.358-2.862 3.534-2.862.916 0 1.87.463 2.862 1.388l-1.283 2.142c-.849-.802-1.634-1.202-2.356-1.202a2.523 2.523 0 00-2.042 1.12 4.259 4.259 0 00-.863 2.662v6.449h-2.447V44.985h2.461zm9.502-5.176a1.433 1.433 0 011.03.415 1.375 1.375 0 01.425 1.016 1.46 1.46 0 01-1.431 1.43 1.343 1.343 0 01-.992-.433 1.401 1.401 0 01-.43-1.012 1.389 1.389 0 01.43-.997 1.343 1.343 0 01.992-.434l-.024.015zm-1.207 5.175h2.438V57.29h-2.438V44.984z" fill="#91BD9D"/><path d="M21.393 38.13h2.662l-7.899 18.764h-.606L7.494 38.13h2.695l5.619 13.122 5.585-13.122zm10.46 11.286v5.247c0 .42.143.63.43.63a2.977 2.977 0 001.378-.659v1.488c-.42.283-.866.525-1.331.725-.336.13-.694.196-1.054.196-1.04 0-1.655-.41-1.846-1.23a5.285 5.285 0 01-3.3 1.201 2.914 2.914 0 01-2.142-.849 2.863 2.863 0 01-.854-2.132 2.995 2.995 0 01.834-2.08 5.677 5.677 0 012.385-1.43l3.115-1.074v-.653c0-1.479-.74-2.223-2.218-2.223-1.33 0-2.623.687-3.883 2.06V45.94c.954-1.11 2.315-1.666 4.083-1.67a4.726 4.726 0 013.187 1.05c.29.253.534.554.72.892.205.341.344.718.41 1.111a16.6 16.6 0 01.086 2.103v-.01zm-2.385 4.975v-3.654l-1.631.63c-.643.22-1.24.559-1.76.997a1.798 1.798 0 000 2.494 1.723 1.723 0 001.264.477 3.054 3.054 0 002.15-.954m8.805-16.251h-2.432v18.688h2.432V38.13zm18.719 0h2.5v18.683h-2.686V42.275l-5.748 7.221h-.496l-5.81-7.221v14.538H42.1V38.13h2.532l6.21 7.674 6.173-7.674zm13.922 11.285v5.247c0 .42.143.63.43.63a2.942 2.942 0 001.378-.658v1.488c-.42.282-.866.525-1.331.725-.335.13-.69.195-1.05.195-1.042 0-1.658-.41-1.845-1.23a5.309 5.309 0 01-3.306 1.202 2.918 2.918 0 01-2.141-.85 2.862 2.862 0 01-.854-2.131 2.995 2.995 0 01.834-2.08 5.676 5.676 0 012.385-1.431l3.115-1.073v-.654c0-1.478-.74-2.222-2.218-2.222-1.33 0-2.622.687-3.878 2.06v-2.695c.954-1.11 2.314-1.666 4.078-1.67a4.728 4.728 0 013.196 1.04c.586.527.983 1.23 1.13 2.004a16.6 16.6 0 01.087 2.103h-.01zm-2.375 4.966v-3.654l-1.632.63c-.643.22-1.24.558-1.76.997a1.798 1.798 0 00-.024 2.494 1.722 1.722 0 001.264.477 3.052 3.052 0 002.152-.954m8.943-9.864v2.823l.134-.214c1.176-1.908 2.355-2.862 3.534-2.862.916 0 1.87.463 2.862 1.388l-1.283 2.141c-.844-.8-1.631-1.201-2.352-1.201a2.524 2.524 0 00-2.04 1.12 4.23 4.23 0 00-.864 2.662v6.449h-2.447V44.507h2.456zm9.497-5.174a1.432 1.432 0 011.03.415 1.36 1.36 0 01.43 1.016 1.387 1.387 0 01-.43 1.016 1.43 1.43 0 01-1.03.429 1.345 1.345 0 01-.988-.434 1.401 1.401 0 01-.429-1.011 1.388 1.388 0 01.43-.997 1.347 1.347 0 01.987-.434zM85.8 44.508h2.447v12.306h-2.433L85.8 44.508z" fill="#fff"/></svg>